<?xml version="1.0" encoding="UTF-8"?>
<svg version="1.1" xmlns="http://www.w3.org/2000/svg" width="324" height="324">
<path d="M0 0 C106.92 0 213.84 0 324 0 C324 106.92 324 213.84 324 324 C217.08 324 110.16 324 0 324 C0 217.08 0 110.16 0 0 Z " fill="#000000" transform="translate(0,0)"/>
<path d="M0 0 C14.0045195 -0.09376704 28.00898977 -0.16387018 42.01375961 -0.20724869 C48.51758504 -0.22807402 55.02119874 -0.25629956 61.52490234 -0.30175781 C67.80783402 -0.34539537 74.09056274 -0.36917508 80.37363434 -0.37950897 C82.76408327 -0.38686821 85.15452179 -0.4012387 87.54488373 -0.42292023 C102.93345214 -0.55687951 116.21665489 -0.65852742 129 9 C130.12728516 9.84691406 130.12728516 9.84691406 131.27734375 10.7109375 C137.319661 15.63728601 140.81531386 20.92632212 144 28 C144.3403125 28.71800781 144.680625 29.43601562 145.03125 30.17578125 C148.70772228 39.2137756 148.26777654 50.549817 145.04296875 59.6640625 C139.75027179 71.51811786 132.25392069 80.96426237 120.1875 86.2265625 C110.89275902 89.73734782 100.89925696 91.82023817 91 90 C86.22865557 87.03808361 82.76519279 83.29880437 79.0625 79.125 C78.07445643 78.07872171 77.08293235 77.03571884 76.08789062 75.99609375 C69 68.48059702 69 68.48059702 69 66 C70.06847168 65.99589111 71.13694336 65.99178223 72.23779297 65.98754883 C76.24526605 65.96558921 80.25178054 65.91112912 84.25878906 65.84741211 C85.98493177 65.82437754 87.71121213 65.8098709 89.4375 65.80444336 C105.30420245 65.7647532 105.30420245 65.7647532 118.5 57.5625 C121.81367815 51.90163316 122.8785439 46.47926124 122 40 C120.13877202 34.09906129 117.06517153 30.44431664 112 27 C107.27009361 25.00999292 103.11098495 24.80750051 98.06469727 25.04614258 C96.46166304 25.10189103 94.85859828 25.15676647 93.25550842 25.21089172 C92.41131914 25.2423913 91.56712986 25.27389088 90.69735909 25.30634499 C85.21114519 25.49023605 79.72178927 25.55088245 74.2333231 25.63626575 C69.44058518 25.71775841 64.65577026 25.83952533 59.86694336 26.05249023 C25.03488555 27.54745771 25.03488555 27.54745771 13.49865246 17.26473141 C8.41242889 12.35758279 3.86882779 6.91706218 0 1 C0 0.67 0 0.34 0 0 Z " fill="#03FBFA" transform="translate(89,84)"/>
<path d="M0 0 C11.13495292 -3.29758833 23.05251333 -4.56961824 34 0 C50.14328911 9.73233141 63.33014375 25.85022518 76.08791327 39.58246672 C81.1504915 45.02401687 86.31740868 50.36184622 91.49243093 55.69620216 C99.51778422 63.97411917 107.48656325 72.30281589 115.36962891 80.71655273 C116.14842911 81.54517319 116.92722931 82.37379364 117.72962952 83.2275238 C118.42935379 83.97775818 119.12907806 84.72799255 119.8500061 85.5009613 C120.46216288 86.15635612 121.07431965 86.81175093 121.70502663 87.48700619 C123 89 123 89 123 90 C110.63752923 92.37882825 95.69984671 94.60037582 84.56286621 87.43029785 C74.37058198 79.95043423 65.89149876 70.25896955 57.46099854 60.91217041 C53.95363147 57.06655593 50.33825686 53.3251947 46.734375 49.5703125 C41.51630327 44.09990441 36.33405538 38.59987675 31.24365234 33.01025391 C30.70797134 32.42834793 30.17229034 31.84644196 29.62037659 31.24690247 C26 27.23596565 26 27.23596565 26 25 C25.34 25 24.68 25 24 25 C24 46.45 24 67.9 24 90 C16.13432836 83.25799574 16.13432836 83.25799574 13.375 80.4375 C12.7975 79.85226563 12.22 79.26703125 11.625 78.6640625 C11.08875 78.11492187 10.5525 77.56578125 10 77 C6.4339696 73.34650543 6.4339696 73.34650543 2.38703918 70.27398682 C0 68 0 68 -0.60127258 64.93743896 C-0.59016953 63.73830872 -0.57906647 62.53917847 -0.56762695 61.30371094 C-0.56835709 60.63988403 -0.56908722 59.97605713 -0.56983948 59.29211426 C-0.56636533 57.1053599 -0.52751961 54.92075551 -0.48828125 52.734375 C-0.47895233 51.21552697 -0.47183659 49.69666387 -0.46684265 48.17779541 C-0.44777854 44.18581386 -0.39868435 40.19474619 -0.34332275 36.203125 C-0.29211668 32.12772993 -0.26932581 28.05218675 -0.24414062 23.9765625 C-0.19056367 15.98395624 -0.1052596 7.9920919 0 0 Z " fill="#04FAF9" transform="translate(112,149)"/>
<path d="M0 0 C14.0045195 -0.09376704 28.00898977 -0.16387018 42.01375961 -0.20724869 C48.51758504 -0.22807402 55.02119874 -0.25629956 61.52490234 -0.30175781 C67.80783402 -0.34539537 74.09056274 -0.36917508 80.37363434 -0.37950897 C82.76408327 -0.38686821 85.15452179 -0.4012387 87.54488373 -0.42292023 C111.52387155 -0.63166011 111.52387155 -0.63166011 121 4 C121.66868103 4.30597107 122.33736206 4.61194214 123.02630615 4.92718506 C124.37451839 5.57076174 125.69405842 6.2744769 127 7 C126.01 7.66 125.02 8.32 124 9 C124 8.34 124 7.68 124 7 C119.545 6.01 119.545 6.01 115 5 C115 4.34 115 3.68 115 3 C79.36 2.67 43.72 2.34 7 2 C7.33 3.98 7.66 5.96 8 8 C6.85073734 7.04578192 5.70569459 6.08647955 4.5625 5.125 C3.92441406 4.59132813 3.28632812 4.05765625 2.62890625 3.5078125 C1 2 1 2 0 0 Z " fill="#14D8D7" transform="translate(89,84)"/>
<path d="M0 0 C11.22 0 22.44 0 34 0 C34.66 0.99 35.32 1.98 36 3 C24.78 2.67 13.56 2.34 2 2 C2.66 3.65 3.32 5.3 4 7 C4.20254517 9.95503235 4.20254517 9.95503235 4.13525391 13.2590332 C4.11508209 14.49994217 4.09491028 15.74085114 4.0741272 17.0193634 C4.04182944 18.36317475 4.00930255 19.70698061 3.9765625 21.05078125 C3.95037411 22.43367346 3.92510882 23.81658344 3.90072632 25.19950867 C3.83428321 28.8279581 3.75534649 32.45603102 3.67376709 36.08416748 C3.59264319 39.79099142 3.52339022 43.49803527 3.453125 47.20507812 C3.31367219 54.47031852 3.16101419 61.73520207 3 69 C2.01 68.67 1.02 68.34 0 68 C0 45.56 0 23.12 0 0 Z " fill="#10D0CF" transform="translate(112,149)"/>
<path d="M0 0 C2.96175123 0.61277612 4.38058783 1.25372522 7 3 C7 3.66 7 4.32 7 5 C7.99 5 8.98 5 10 5 C9.67 3.35 9.34 1.7 9 0 C10.04458319 0.87151615 11.08546407 1.74746967 12.125 2.625 C13.10339844 3.43710938 13.10339844 3.43710938 14.1015625 4.265625 C16 6 16 6 17.2734375 7.734375 C18.75317225 9.71363805 19.8204279 10.79604589 22 12 C30.28007073 13.08622332 37.97564296 11.97320255 46 10 C48.23828125 10.44140625 48.23828125 10.44140625 50 11 C43.03914816 13.89464397 36.92129996 14.38066228 29.4375 14.1875 C28.42880859 14.17396484 27.42011719 14.16042969 26.38085938 14.14648438 C23.91999379 14.11149576 21.46029665 14.06241158 19 14 C19.33 15.98 19.66 17.96 20 20 C15.07809171 15.99379558 10.55349248 11.66383798 6.0625 7.1875 C5.47057861 6.60009033 4.87865723 6.01268066 4.26879883 5.4074707 C0 1.12370457 0 1.12370457 0 0 Z " fill="#001718" transform="translate(158,161)"/>
<path d="M0 0 C0.66 0 1.32 0 2 0 C3.2890625 1.53125 3.2890625 1.53125 4.625 3.5 C5.07101563 4.1496875 5.51703125 4.799375 5.9765625 5.46875 C6.31429687 5.9740625 6.65203125 6.479375 7 7 C5.68 7 4.36 7 3 7 C2.67 26.8 2.34 46.6 2 67 C0.68 67 -0.64 67 -2 67 C-2.33 65.68 -2.66 64.36 -3 63 C-2.34 63.33 -1.68 63.66 -1 64 C-0.67 42.88 -0.34 21.76 0 0 Z " fill="#043D3D" transform="translate(136,174)"/>
<path d="M0 0 C0.99 0.495 0.99 0.495 2 1 C4.5918812 1.11196238 7.15823992 1.16466254 9.75097656 1.17358398 C10.55117722 1.180271 11.35137787 1.18695801 12.17582703 1.19384766 C13.91697914 1.20791498 15.65814987 1.21980366 17.39933014 1.22979546 C20.15681172 1.24618999 22.91415611 1.26942891 25.67156982 1.29469299 C33.51291065 1.36549947 41.3543086 1.42550761 49.19580078 1.47680664 C53.98979691 1.50864995 58.78363729 1.54994339 63.57750702 1.59700203 C65.40347228 1.61299503 67.22947345 1.62532905 69.05548859 1.63390923 C71.61430099 1.64610248 74.17274949 1.67027047 76.73144531 1.69702148 C77.48284286 1.69761063 78.23424042 1.69819977 79.00840759 1.69880676 C83.37201736 1.75906683 86.94072113 2.39626807 91 4 C91 4.33 91 4.66 91 5 C89.85398315 4.83734146 88.70796631 4.67468292 87.52722168 4.50709534 C83.18805221 3.96744309 78.9323852 3.86519554 74.56445312 3.88647461 C73.76349213 3.88632858 72.96253113 3.88618256 72.13729858 3.8860321 C69.51858711 3.8867227 66.89994888 3.89447471 64.28125 3.90234375 C62.45422403 3.90421097 60.62719755 3.90563344 58.8001709 3.90663147 C54.01296585 3.91043274 49.22579159 3.92024242 44.43859863 3.93133545 C39.54500749 3.94160116 34.65141133 3.94614011 29.7578125 3.95117188 C20.17186154 3.96186701 10.58593334 3.97891447 1 4 C0.67 2.68 0.34 1.36 0 0 Z " fill="#003132" transform="translate(110,106)"/>
<path d="M0 0 C0 0.66 0 1.32 0 2 C-1.65 2.33 -3.3 2.66 -5 3 C-5 3.66 -5 4.32 -5 5 C-21.335 5.495 -21.335 5.495 -38 6 C-38.33 7.65 -38.66 9.3 -39 11 C-38.34 11.33 -37.68 11.66 -37 12 C-40 12 -40 12 -41.60546875 10.7578125 C-42.12753906 10.21898437 -42.64960938 9.68015625 -43.1875 9.125 C-43.71730469 8.59132812 -44.24710938 8.05765625 -44.79296875 7.5078125 C-46 6 -46 6 -46 4 C-44.37372681 3.97812622 -44.37372681 3.97812622 -42.71459961 3.95581055 C-38.66821336 3.89756528 -34.62236841 3.8203353 -30.57641602 3.73754883 C-28.82976101 3.70442233 -27.08300212 3.67635263 -25.33618164 3.65356445 C-22.8161213 3.61979119 -20.29700248 3.56746653 -17.77734375 3.51171875 C-17.00414291 3.50532883 -16.23094208 3.4989389 -15.43431091 3.49235535 C-9.92051696 3.34491527 -5.07404466 0 0 0 Z " fill="#1FE2E3" transform="translate(204,146)"/>
<path d="M0 0 C1.16959987 0.97566112 2.33561177 1.955625 3.5 2.9375 C4.47453125 3.75541016 4.47453125 3.75541016 5.46875 4.58984375 C5.9740625 5.05519531 6.479375 5.52054688 7 6 C7 6.33 7 6.66 7 7 C2.21287067 7.09886835 -2.57366475 7.17146623 -7.36157227 7.21972656 C-8.99025829 7.23984381 -10.61887208 7.26714137 -12.24731445 7.30175781 C-14.58823458 7.35027429 -16.92820018 7.37296632 -19.26953125 7.390625 C-19.99775589 7.41127014 -20.72598053 7.43191528 -21.47627258 7.45318604 C-23.53833008 7.45410156 -23.53833008 7.45410156 -27 7 C-28.9831543 4.97558594 -28.9831543 4.97558594 -30 3 C-29.35417969 3.144375 -28.70835937 3.28875 -28.04296875 3.4375 C-18.34702317 5.34750843 -8.83223576 5.18512578 1 5 C0.67 3.35 0.34 1.7 0 0 Z " fill="#26E2E0" transform="translate(228,232)"/>
<path d="M0 0 C0.33 0 0.66 0 1 0 C0.67 6.27 0.34 12.54 0 19 C-0.33 19 -0.66 19 -1 19 C-1.10957031 18.20335937 -1.21914062 17.40671875 -1.33203125 16.5859375 C-2.18991568 10.8527586 -2.96021657 5.97419107 -6 1 C-4.7934375 1.0309375 -4.7934375 1.0309375 -3.5625 1.0625 C-1.06645115 1.29633621 -1.06645115 1.29633621 0 0 Z " fill="#14EFEF" transform="translate(213,114)"/>
<path d="M0 0 C3.58091264 3.58091264 3.9532033 8.05002694 4.1953125 12.96484375 C4.16050781 14.93130859 4.16050781 14.93130859 4.125 16.9375 C4.11146484 17.96327148 4.11146484 17.96327148 4.09765625 19.00976562 C4.07438958 20.67333287 4.03853167 22.33671631 4 24 C3.67 24 3.34 24 3 24 C2.93941406 23.21753906 2.87882813 22.43507812 2.81640625 21.62890625 C2.73261719 20.61699219 2.64882812 19.60507813 2.5625 18.5625 C2.44068359 17.04849609 2.44068359 17.04849609 2.31640625 15.50390625 C2.26788532 13.06359221 2.26788532 13.06359221 1 12 C0.76572222 9.98405418 0.58663876 7.961526 0.4375 5.9375 C0.35371094 4.83277344 0.26992187 3.72804688 0.18359375 2.58984375 C0.09271484 1.30787109 0.09271484 1.30787109 0 0 Z " fill="#14B8B7" transform="translate(232,112)"/>
<path d="M0 0 C4.40886502 -0.15887802 8.11776684 0.36473782 12.375 1.5 C13.43460938 1.7784375 14.49421875 2.056875 15.5859375 2.34375 C16.38257813 2.5603125 17.17921875 2.776875 18 3 C18 3.33 18 3.66 18 4 C15.56131832 4.1079859 13.12740867 4.18726589 10.6875 4.25 C9.99720703 4.28351563 9.30691406 4.31703125 8.59570312 4.3515625 C6.57421875 4.390625 6.57421875 4.390625 3 4 C1.01953125 1.984375 1.01953125 1.984375 0 0 Z " fill="#10CECB" transform="translate(177,170)"/>
<path d="M0 0 C7.48291572 6.15034169 7.48291572 6.15034169 10 10 C9.01 10 8.02 10 7 10 C6.67 10.66 6.34 11.32 6 12 C5.34 12 4.68 12 4 12 C4.33 10.02 4.66 8.04 5 6 C3.68 5.67 2.36 5.34 1 5 C0.67 3.35 0.34 1.7 0 0 Z " fill="#16ECEC" transform="translate(158,162)"/>
<path d="M0 0 C1.17571451 3.67410785 1.07366746 7.16929183 1 11 C-0.32 10.67 -1.64 10.34 -3 10 C-3.33 11.32 -3.66 12.64 -4 14 C-4.99 13.34 -5.98 12.68 -7 12 C-6.21625 11.13375 -5.4325 10.2675 -4.625 9.375 C-2.16613272 6.44943553 -0.97549896 3.72463238 0 0 Z " fill="#18E5E4" transform="translate(211,133)"/>
<path d="M0 0 C7.48291572 6.15034169 7.48291572 6.15034169 10 10 C8.35 10 6.7 10 5 10 C5.33 9.01 5.66 8.02 6 7 C5.38125 6.95875 4.7625 6.9175 4.125 6.875 C3.42375 6.58625 2.7225 6.2975 2 6 C0.75 2.9375 0.75 2.9375 0 0 Z " fill="#16ECEB" transform="translate(148,152)"/>
<path d="M0 0 C1.98 0 3.96 0 6 0 C5.34 0.66 4.68 1.32 4 2 C4.66 2.33 5.32 2.66 6 3 C6.33 3.99 6.66 4.98 7 6 C7.66 6.66 8.32 7.32 9 8 C4.66314164 8 3.0556673 5.91985986 0 3 C0 2.01 0 1.02 0 0 Z " fill="#0FEDEB" transform="translate(199,106)"/>
<path d="M0 0 C1.98 1.65 3.96 3.3 6 5 C4 7 4 7 1 8 C-0.42944945 5.64561267 -1.08661261 4.51967567 -0.625 1.75 C-0.41875 1.1725 -0.2125 0.595 0 0 Z " fill="#0FF1ED" transform="translate(219,223)"/>
<path d="M0 0 C1.65 0 3.3 0 5 0 C4.67 1.98 4.34 3.96 4 6 C4.66 6.33 5.32 6.66 6 7 C3 7 3 7 1.3125 5.75 C0 4 0 4 0 0 Z " fill="#0BE7E5" transform="translate(161,151)"/>
<path d="M0 0 C0.33 0.66 0.66 1.32 1 2 C1.66 2.33 2.32 2.66 3 3 C0.36 4.98 -2.28 6.96 -5 9 C-5 6 -5 6 -4 3 C-2.68 3 -1.36 3 0 3 C0 2.01 0 1.02 0 0 Z " fill="#15E2DE" transform="translate(220,158)"/>
<path d="M0 0 C0.99 0 1.98 0 3 0 C1.74194623 4.50802601 0.09592835 7.4912812 -3 11 C-3 9.68 -3 8.36 -3 7 C-2.34 7 -1.68 7 -1 7 C-1.020625 6.030625 -1.04125 5.06125 -1.0625 4.0625 C-1 1 -1 1 0 0 Z " fill="#16E2E1" transform="translate(230,144)"/>
<path d="M0 0 C2.31 0.66 4.62 1.32 7 2 C8.125 5.75 8.125 5.75 7 8 C5.83035398 6.8572081 4.66435444 5.71068285 3.5 4.5625 C2.8503125 3.92441406 2.200625 3.28632813 1.53125 2.62890625 C0 1 0 1 0 0 Z " fill="#002524" transform="translate(227,230)"/>
<path d="M0 0 C0.598125 0.20625 1.19625 0.4125 1.8125 0.625 C1.4825 2.605 1.1525 4.585 0.8125 6.625 C-1.1675 4.975 -3.1475 3.325 -5.1875 1.625 C-2.1875 -0.375 -2.1875 -0.375 0 0 Z " fill="#12EAE4" transform="translate(102.1875,91.375)"/>
<path d="M0 0 C3.79588866 0.54226981 5.47211993 2.20127563 8 5 C7.67 5.99 7.34 6.98 7 8 C5.83035398 6.8572081 4.66435444 5.71068285 3.5 4.5625 C2.8503125 3.92441406 2.200625 3.28632813 1.53125 2.62890625 C0 1 0 1 0 0 Z " fill="#002A2C" transform="translate(158,161)"/>
<path d="M0 0 C3.79588866 0.54226981 5.47211993 2.20127563 8 5 C7.67 5.99 7.34 6.98 7 8 C5.83035398 6.8572081 4.66435444 5.71068285 3.5 4.5625 C2.8503125 3.92441406 2.200625 3.28632813 1.53125 2.62890625 C0 1 0 1 0 0 Z " fill="#002929" transform="translate(198,201)"/>
<path d="M0 0 C2 1.3125 2 1.3125 4 3 C4 3.99 4 4.98 4 6 C0.7 6 -2.6 6 -6 6 C-6 5.67 -6 5.34 -6 5 C-3.69 5 -1.38 5 1 5 C0.67 3.35 0.34 1.7 0 0 Z " fill="#16F0EA" transform="translate(228,232)"/>
<path d="M0 0 C2.31 0.33 4.62 0.66 7 1 C7 1.99 7 2.98 7 4 C6.34 4.66 5.68 5.32 5 6 C3.35 4.02 1.7 2.04 0 0 Z " fill="#13E8E7" transform="translate(103,98)"/>
<path d="M0 0 C2.4375 0.6875 2.4375 0.6875 5 2 C5.8125 4.625 5.8125 4.625 6 7 C3.95880212 5.38405168 1.95927063 3.7143618 0 2 C0 1.34 0 0.68 0 0 Z " fill="#18E3DB" transform="translate(91,85)"/>
<path d="M0 0 C2.4375 0.8125 2.4375 0.8125 5 2 C5.33 2.99 5.66 3.98 6 5 C6.66 5.33 7.32 5.66 8 6 C5 6 5 6 3.61328125 4.6875 C2.40885417 3.125 1.20442708 1.5625 0 0 Z " fill="#1AD6D4" transform="translate(189,226)"/>
</svg>
